<svg width="42" height="42" viewBox="0 0 42 42" fill="none" xmlns="http://www.w3.org/2000/svg">
<g clip-path="url(#clip0_4851_1911)">
<path d="M21 31.4956C26.799 31.4956 31.5 26.7946 31.5 20.9956C31.5 15.1966 26.799 10.4956 21 10.4956C15.201 10.4956 10.5 15.1966 10.5 20.9956C10.5 26.7946 15.201 31.4956 21 31.4956Z" fill="white"/>
<path d="M21 10.5H39.1835C37.341 7.3075 34.6903 4.65635 31.4981 2.81317C28.3059 0.969985 24.6847 -0.000257137 20.9986 5.11174e-08C17.3125 0.000257239 13.6914 0.971004 10.4995 2.81463C7.30754 4.65826 4.65726 7.30978 2.81512 10.5026L11.9069 26.25L11.915 26.2479C10.9902 24.653 10.5021 22.8425 10.5 20.9989C10.4979 19.1552 10.9819 17.3436 11.9032 15.7466C12.8245 14.1497 14.1505 12.8238 15.7476 11.9027C17.3447 10.9816 19.1563 10.4978 21 10.5Z" fill="url(#paint0_linear_4851_1911)"/>
<path d="M21 29.3125C25.5909 29.3125 29.3125 25.5909 29.3125 21C29.3125 16.4091 25.5909 12.6875 21 12.6875C16.4091 12.6875 12.6875 16.4091 12.6875 21C12.6875 25.5909 16.4091 29.3125 21 29.3125Z" fill="#1A73E8"/>
<path d="M30.0924 26.2528L21.0006 42.0002C24.6867 42.0007 28.3079 41.0307 31.5003 39.1878C34.6926 37.3448 37.3434 34.6939 39.1862 31.5015C41.029 28.3091 41.9989 24.6878 41.9982 21.0017C41.9976 17.3156 41.0264 13.6947 39.1825 10.5029H20.999L20.9968 10.5111C22.8405 10.5075 24.6525 10.9901 26.2502 11.9101C27.8479 12.8301 29.1748 14.1551 30.0972 15.7514C31.0196 17.3478 31.5048 19.1591 31.5039 21.0027C31.5031 22.8464 31.0162 24.6573 30.0924 26.2528Z" fill="url(#paint1_linear_4851_1911)"/>
<path d="M11.9075 26.2528L2.81574 10.5054C0.972228 13.6974 0.00160223 17.3185 0.00146486 21.0046C0.00132749 24.6907 0.971683 28.3119 2.81496 31.504C4.65824 34.6962 7.30947 37.3467 10.5021 39.1892C13.6947 41.0317 17.3161 42.0012 21.0022 42.0001L30.094 26.2527L30.0881 26.2467C29.1693 27.8451 27.8454 29.1731 26.2498 30.0967C24.6542 31.0203 22.8432 31.507 20.9996 31.5076C19.1559 31.5082 17.3447 31.0228 15.7484 30.1002C14.1522 29.1777 12.8274 27.8506 11.9075 26.2528Z" fill="url(#paint2_linear_4851_1911)"/>
</g>
<defs>
<linearGradient id="paint0_linear_4851_1911" x1="2.81512" y1="13.125" x2="39.1835" y2="13.125" gradientUnits="userSpaceOnUse">
<stop stop-color="#D93025"/>
<stop offset="1" stop-color="#EA4335"/>
</linearGradient>
<linearGradient id="paint1_linear_4851_1911" x1="18.1316" y1="41.7194" x2="36.3159" y2="10.2235" gradientUnits="userSpaceOnUse">
<stop stop-color="#FCC934"/>
<stop offset="1" stop-color="#FBBC04"/>
</linearGradient>
<linearGradient id="paint2_linear_4851_1911" x1="23.2733" y1="40.6889" x2="5.08908" y2="9.19287" gradientUnits="userSpaceOnUse">
<stop stop-color="#1E8E3E"/>
<stop offset="1" stop-color="#34A853"/>
</linearGradient>
<clipPath id="clip0_4851_1911">
<rect width="42" height="42" fill="white"/>
</clipPath>
</defs>
</svg>
