<svg width="16" height="16" viewBox="0 0 16 16" fill="none" xmlns="http://www.w3.org/2000/svg">
<path fill-rule="evenodd" clip-rule="evenodd" d="M8.35333 10.8531C8.25958 10.9467 8.1325 10.9993 8 10.9993C7.8675 10.9993 7.74042 10.9467 7.64667 10.8531L2.64667 5.85311C2.55835 5.75833 2.51026 5.63296 2.51255 5.50343C2.51484 5.37389 2.56731 5.2503 2.65892 5.1587C2.75053 5.06709 2.87412 5.01461 3.00365 5.01233C3.13319 5.01004 3.25855 5.05812 3.35333 5.14644L8 9.79311L12.6467 5.14644C12.6924 5.09732 12.7476 5.05792 12.809 5.03059C12.8703 5.00326 12.9365 4.98857 13.0037 4.98738C13.0708 4.9862 13.1375 4.99855 13.1997 5.02369C13.262 5.04884 13.3185 5.08627 13.366 5.13375C13.4135 5.18123 13.4509 5.23779 13.4761 5.30004C13.5012 5.3623 13.5136 5.42899 13.5124 5.49612C13.5112 5.56326 13.4965 5.62947 13.4692 5.6908C13.4419 5.75214 13.4025 5.80734 13.3533 5.85311L8.35333 10.8531Z" fill="black"/>
</svg>
