<?xml version="1.0" encoding="utf-8"?>
<svg xmlns="http://www.w3.org/2000/svg" xmlns:xlink="http://www.w3.org/1999/xlink">
    <symbol id="telegram" viewBox="0 0 26 26">
        <path
            d="M22.3871 4.0268L3.1796 11.4335C1.86877 11.96 1.87635 12.6913 2.9391 13.0174L7.87044 14.5557L19.2801 7.35697C19.8196 7.02872 20.3125 7.2053 19.9074 7.56497L10.6633 15.9077H10.6611L10.6633 15.9088L10.3231 20.9918C10.8214 20.9918 11.0414 20.7632 11.3209 20.4935L13.7161 18.1643L18.6984 21.8444C19.617 22.3503 20.2768 22.0903 20.5054 20.994L23.7759 5.5803C24.1107 4.23805 23.2635 3.6303 22.3871 4.0268Z" />
    </symbol>

    <symbol id="twitter" viewBox="0 0 26 26">
        <path
            d="M21.6613 7.24524C22.6324 6.66467 23.359 5.7505 23.7055 4.67341C22.793 5.21486 21.7946 5.59627 20.7534 5.80116C19.31 4.27423 17.023 3.90264 15.1704 4.89403C13.3177 5.88542 12.3581 7.99435 12.8278 10.0424C9.08984 9.85474 5.60731 8.08907 3.24677 5.18474C2.01484 7.30961 2.64438 10.0259 4.68543 11.3922C3.94737 11.3685 3.22567 11.1687 2.58052 10.8094C2.58052 10.8289 2.58052 10.8484 2.58052 10.8679C2.58094 13.0813 4.14092 14.9879 6.31043 15.4266C5.62584 15.6128 4.90774 15.6402 4.21093 15.5067C4.82107 17.3996 6.56561 18.6964 8.55402 18.7351C6.90717 20.0276 4.87337 20.7286 2.77985 20.7252C2.40878 20.7257 2.03799 20.7043 1.66943 20.6612C3.79536 22.0274 6.26967 22.7525 8.79668 22.7499C12.3124 22.7741 15.691 21.3881 18.177 18.9019C20.6629 16.4158 22.0486 13.037 22.0242 9.52132C22.0242 9.31982 22.0195 9.11941 22.0101 8.92007C22.9206 8.26206 23.7064 7.4469 24.3306 6.51291C23.4824 6.88889 22.5826 7.13574 21.6613 7.24524Z" />
    </symbol>

    <symbol id="medium" viewBox="0 0 26 26">
        <path
            d="M8.66669 6.5C10.3906 6.5 12.0439 7.18482 13.2629 8.40381C14.4819 9.62279 15.1667 11.2761 15.1667 13C15.1667 14.7239 14.4819 16.3772 13.2629 17.5962C12.0439 18.8152 10.3906 19.5 8.66669 19.5C6.94278 19.5 5.28948 18.8152 4.07049 17.5962C2.85151 16.3772 2.16669 14.7239 2.16669 13C2.16669 11.2761 2.85151 9.62279 4.07049 8.40381C5.28948 7.18482 6.94278 6.5 8.66669 6.5ZM18.4167 7.58333C20.0417 7.58333 21.125 10.0089 21.125 13C21.125 15.9911 20.0417 18.4167 18.4167 18.4167C16.7917 18.4167 15.7084 15.9911 15.7084 13C15.7084 10.0089 16.7917 7.58333 18.4167 7.58333ZM22.75 8.125C23.1617 8.125 23.5214 9.02092 23.7034 10.5582L23.7543 11.0381L23.7749 11.2927L23.8074 11.8278L23.8182 12.1084L23.8312 12.6945L23.8334 13L23.8312 13.3055L23.8182 13.8916L23.8074 14.1733L23.7749 14.7073L23.7532 14.9619L23.7044 15.4418C23.5214 16.9802 23.1628 17.875 22.75 17.875C22.3384 17.875 21.9787 16.9791 21.7967 15.4418L21.7458 14.9619C21.7383 14.8771 21.7314 14.7922 21.7252 14.7073L21.6927 14.1722C21.6885 14.0787 21.6849 13.9851 21.6819 13.8916L21.6689 13.3055V12.6945L21.6819 12.1084L21.6927 11.8267L21.7252 11.2927L21.7469 11.0381L21.7956 10.5582C21.9787 9.01983 22.3373 8.125 22.75 8.125Z" />
    </symbol>

    <symbol id="youtube" viewBox="0 0 26 26">
        <path
            d="M10.8334 16.2498L16.4559 12.9998L10.8334 9.74984V16.2498ZM23.3567 7.76734C23.4975 8.2765 23.595 8.959 23.66 9.82567C23.7359 10.6923 23.7684 11.4398 23.7684 12.0898L23.8334 12.9998C23.8334 15.3723 23.66 17.1165 23.3567 18.2323C23.0859 19.2073 22.4575 19.8357 21.4825 20.1065C20.9734 20.2473 20.0417 20.3448 18.6117 20.4098C17.2034 20.4857 15.9142 20.5182 14.7225 20.5182L13 20.5832C8.46085 20.5832 5.63335 20.4098 4.51752 20.1065C3.54252 19.8357 2.91419 19.2073 2.64335 18.2323C2.50252 17.7232 2.40502 17.0407 2.34002 16.174C2.26419 15.3073 2.23169 14.5598 2.23169 13.9098L2.16669 12.9998C2.16669 10.6273 2.34002 8.88317 2.64335 7.76734C2.91419 6.79234 3.54252 6.164 4.51752 5.89317C5.02669 5.75234 5.95835 5.65484 7.38835 5.58984C8.79669 5.514 10.0859 5.4815 11.2775 5.4815L13 5.4165C17.5392 5.4165 20.3667 5.58984 21.4825 5.89317C22.4575 6.164 23.0859 6.79234 23.3567 7.76734Z" />
    </symbol>

    <symbol id="iconDelete" viewBox="0 0 24 24">
        <path
            d="M14.74 9.00003L14.394 18M9.606 18L9.26 9.00003M19.228 5.79003C19.57 5.84203 19.91 5.89703 20.25 5.95603M19.228 5.79003L18.16 19.673C18.1164 20.2383 17.8611 20.7662 17.445 21.1513C17.029 21.5364 16.4829 21.7502 15.916 21.75H8.084C7.5171 21.7502 6.97102 21.5364 6.55498 21.1513C6.13894 20.7662 5.88359 20.2383 5.84 19.673L4.772 5.79003M19.228 5.79003C18.0739 5.61555 16.9138 5.48313 15.75 5.39303M4.772 5.79003C4.43 5.84103 4.09 5.89603 3.75 5.95503M4.772 5.79003C5.92613 5.61555 7.08623 5.48313 8.25 5.39303M15.75 5.39303V4.47703C15.75 3.29703 14.84 2.31303 13.66 2.27603C12.5536 2.24067 11.4464 2.24067 10.34 2.27603C9.16 2.31303 8.25 3.29803 8.25 4.47703V5.39303M15.75 5.39303C13.2537 5.20011 10.7463 5.20011 8.25 5.39303"
            stroke="#fff" />
    </symbol>
</svg>