<svg width="36" height="36" viewBox="0 0 36 36" fill="none" xmlns="http://www.w3.org/2000/svg">
<g clip-path="url(#clip0_5067_3508)">
<path d="M3.25439 10.9439V25.0559C3.25439 25.9631 3.72959 26.7839 4.52159 27.2447L16.7472 34.3007C17.5248 34.7471 18.4896 34.7471 19.2672 34.3007L31.4928 27.2447C32.2704 26.7983 32.76 25.9631 32.76 25.0559V10.9439C32.76 10.0367 32.2848 9.21586 31.4928 8.75506L19.2672 1.69906C18.4896 1.25266 17.5248 1.25266 16.7472 1.69906L4.52159 8.75506C3.74399 9.20146 3.26879 10.0367 3.26879 10.9439H3.25439Z" fill="#213147"/>
<path d="M20.664 20.7359L18.9216 25.5167C18.8784 25.6463 18.8784 25.7903 18.9216 25.9343L21.9168 34.1567L25.3872 32.1551L21.2256 20.7359C21.1248 20.4767 20.7648 20.4767 20.664 20.7359Z" fill="#12AAFF"/>
<path d="M24.1632 12.7007C24.0624 12.4415 23.7024 12.4415 23.6016 12.7007L21.8592 17.4815C21.816 17.6111 21.816 17.7551 21.8592 17.8991L26.7696 31.3631L30.24 29.3615L24.1632 12.7151V12.7007Z" fill="#12AAFF"/>
<path d="M18 2.232C18.0864 2.232 18.1728 2.2608 18.2448 2.304L31.464 9.936C31.6224 10.0224 31.7088 10.1952 31.7088 10.368V25.632C31.7088 25.8048 31.608 25.9776 31.464 26.064L18.2448 33.696C18.1728 33.7392 18.0864 33.768 18 33.768C17.9136 33.768 17.8272 33.7392 17.7552 33.696L4.536 26.064C4.3776 25.9776 4.2912 25.8048 4.2912 25.632V10.3536C4.2912 10.1808 4.392 10.008 4.536 9.9216L17.7552 2.2896C17.8272 2.2464 17.9136 2.2176 18 2.2176V2.232ZM18 0C17.5248 0 17.064 0.1152 16.632 0.36L3.4128 7.992C2.5632 8.4816 2.0448 9.3744 2.0448 10.3536V25.6176C2.0448 26.5968 2.5632 27.4896 3.4128 27.9792L16.632 35.6112C17.0496 35.856 17.5248 35.9712 18 35.9712C18.4752 35.9712 18.936 35.856 19.368 35.6112L32.5872 27.9792C33.4368 27.4896 33.9552 26.5968 33.9552 25.6176V10.3536C33.9552 9.3744 33.4368 8.4816 32.5872 7.992L19.3536 0.36C18.936 0.1152 18.4608 0 17.9856 0H18Z" fill="#9DCCED"/>
<path d="M9.24481 31.3774L10.4688 28.0366L12.9168 30.067L10.6272 32.1694L9.24481 31.3774Z" fill="#213147"/>
<path d="M16.8768 9.27368H13.5216C13.2768 9.27368 13.0464 9.43208 12.96 9.66248L5.77441 29.3617L9.24481 31.3633L17.1648 9.66248C17.2368 9.46088 17.0928 9.25928 16.8912 9.25928L16.8768 9.27368Z" fill="white"/>
<path d="M22.752 9.27368H19.3968C19.152 9.27368 18.9216 9.43208 18.8352 9.66248L10.6272 32.1553L14.0976 34.1569L23.0256 9.66248C23.0976 9.46088 22.9536 9.25928 22.752 9.25928V9.27368Z" fill="white"/>
</g>
<defs>
<clipPath id="clip0_5067_3508">
<rect width="36" height="36" fill="white"/>
</clipPath>
</defs>
</svg>
