<svg width="36" height="36" viewBox="0 0 36 36" fill="none" xmlns="http://www.w3.org/2000/svg">
<g clip-path="url(#clip0_5067_3531)">
<path d="M29.0825 6.17529H6.86969V26.3774H29.0825V6.17529Z" fill="white"/>
<path fill-rule="evenodd" clip-rule="evenodd" d="M35.9641 18C35.9641 27.928 27.916 35.9761 17.988 35.9761C8.06012 35.9761 0.0119629 27.928 0.0119629 18C0.0119629 8.07208 8.06012 0.0239258 17.988 0.0239258C27.916 0.0239258 35.9641 8.07208 35.9641 18ZM12.8941 25.1536H9.40547C8.6724 25.1536 8.3103 25.1536 8.08951 25.0123C7.85103 24.8577 7.70531 24.6016 7.68765 24.3189C7.67439 24.0585 7.85546 23.7404 8.21757 23.1045L16.8315 7.92131C17.198 7.27656 17.3835 6.95419 17.6175 6.83496C17.8692 6.7069 18.1695 6.7069 18.4212 6.83496C18.6553 6.95419 18.8408 7.27656 19.2073 7.92131L20.9781 11.0125L20.9872 11.0283C21.383 11.72 21.5838 12.0707 21.6714 12.4389C21.7686 12.8407 21.7686 13.2647 21.6714 13.6665C21.5831 14.0375 21.3844 14.3908 20.9825 15.0929L16.4579 23.0913L16.4462 23.1118C16.0477 23.8091 15.8457 24.1626 15.5658 24.4292C15.2611 24.7208 14.8946 24.9326 14.4927 25.0521C14.1262 25.1536 13.7155 25.1536 12.8941 25.1536ZM21.7041 25.1536H26.7029C27.4404 25.1536 27.8114 25.1536 28.0324 25.008C28.2708 24.8534 28.4208 24.5927 28.4342 24.3103C28.4469 24.0582 28.2698 23.7526 27.9227 23.1536C27.9108 23.1332 27.8988 23.1125 27.8866 23.0914L25.3826 18.8078L25.3541 18.7596C25.0023 18.1646 24.8247 17.8641 24.5966 17.748C24.345 17.6199 24.0489 17.6199 23.7973 17.748C23.5677 17.8672 23.3822 18.1808 23.0157 18.8122L20.5206 23.0958L20.5121 23.1105C20.1468 23.741 19.9643 24.0561 19.9775 24.3146C19.9951 24.5973 20.1408 24.8577 20.3793 25.0123C20.5957 25.1536 20.9666 25.1536 21.7041 25.1536Z" fill="#E84142"/>
</g>
<defs>
<clipPath id="clip0_5067_3531">
<rect width="35.9761" height="36" fill="white"/>
</clipPath>
</defs>
</svg>
