<svg width="36" height="36" viewBox="0 0 36 36" fill="none" xmlns="http://www.w3.org/2000/svg">
<path d="M18 36C27.9411 36 36 27.9411 36 18C36 8.05888 27.9411 0 18 0C8.05888 0 0 8.05888 0 18C0 27.9411 8.05888 36 18 36Z" fill="#F3BA2F"/>
<path fill-rule="evenodd" clip-rule="evenodd" d="M14.2369 16.4528L18.0018 12.6895L21.7683 16.4559L23.9578 14.2649L18.0018 8.30762L12.0459 14.2634L14.2369 16.4528ZM8.30768 18.0003L10.4979 15.8101L12.6881 18.0003L10.4979 20.1904L8.30768 18.0003ZM18.0018 23.3119L14.2369 19.547L12.0428 21.7349L12.0459 21.738L18.0018 27.6922L23.9578 21.7349L23.9593 21.7334L21.7683 19.5455L18.0018 23.3119ZM23.3119 18.0008L25.5021 15.8107L27.6923 18.0008L25.5021 20.1909L23.3119 18.0008ZM18.0018 15.7761L20.2235 17.9992H20.225L20.2235 18.0007L18.0018 20.2238L15.7802 18.0038L15.7772 17.9992L15.7802 17.9961L16.1691 17.6072L16.359 17.4189L18.0018 15.7761Z" fill="white"/>
</svg>
