<svg width="36" height="36" viewBox="0 0 36 36" fill="none" xmlns="http://www.w3.org/2000/svg">
<path d="M35.46 22.3546C33.0559 31.9976 23.2886 37.8656 13.6446 35.4615C4.00499 33.0573 -1.86357 23.2901 0.541114 13.6477C2.94411 4.00365 12.7108 -1.86548 22.3521 0.538648C31.9956 2.94277 37.8636 12.7111 35.4594 22.3546H35.46Z" fill="#F7931A"/>
<path fill-rule="evenodd" clip-rule="evenodd" d="M23.4211 15.9089C23.6638 14.2841 22.4267 13.4106 20.7351 12.8279L21.2838 10.6269L19.9437 10.293L19.4095 12.436C19.0576 12.3483 18.6959 12.2655 18.3364 12.1834L18.8745 10.0263L17.5355 9.69238L16.9864 11.8926C16.6948 11.8262 16.4086 11.7606 16.1308 11.6915L16.1323 11.6847L14.2847 11.2233L13.9283 12.6543C13.9283 12.6543 14.9223 12.8821 14.9013 12.8962C15.444 13.0317 15.5424 13.3908 15.5256 13.6754L14.9006 16.1829C14.938 16.1924 14.9864 16.2062 15.0398 16.2275L14.8987 16.1924L14.0221 19.705C13.9557 19.8698 13.7875 20.1171 13.4082 20.0232C13.4215 20.0427 12.4343 19.7801 12.4343 19.7801L11.7692 21.3141L13.5131 21.7488C13.7099 21.7981 13.9044 21.8488 14.0967 21.899L14.0968 21.899C14.2214 21.9315 14.345 21.9638 14.4678 21.9953L13.9134 24.2219L15.2516 24.5558L15.8011 22.3532C16.1663 22.4524 16.5212 22.544 16.8684 22.6303L16.3212 24.8225L17.661 25.1564L18.2155 22.9344C20.5 23.3667 22.2184 23.1923 22.9407 21.1264C23.5234 19.4627 22.9121 18.503 21.7101 17.8768C22.5854 17.6741 23.2448 17.0983 23.4208 15.9089H23.4211ZM20.3596 20.2014C19.9793 21.7284 17.5886 21.0966 16.4958 20.8078L16.4957 20.8078C16.3979 20.7819 16.3104 20.7588 16.2358 20.7402L16.9715 17.7909C17.0627 17.8137 17.1743 17.8387 17.3006 17.8671C18.4312 18.1208 20.7482 18.6407 20.36 20.2014H20.3596ZM17.5278 16.4985C18.4397 16.7417 20.4274 17.272 20.7736 15.8849C21.1277 14.4657 19.1948 14.038 18.2509 13.8291C18.1448 13.8056 18.0511 13.7849 17.9747 13.7659L17.3077 16.4408C17.3708 16.4566 17.4448 16.4763 17.5278 16.4985Z" fill="white"/>
</svg>
