<svg width="36" height="36" viewBox="0 0 36 36" fill="none" xmlns="http://www.w3.org/2000/svg">
<path d="M35.9023 18.0003C35.9023 27.8891 27.8861 35.9055 17.9974 35.9055C8.10859 35.9055 0.0922241 27.8891 0.0922241 18.0003C0.0922241 8.11158 8.10859 0.0952148 17.9974 0.0952148C27.886 0.0952148 35.9023 8.11158 35.9023 18.0003Z" fill="#505050"/>
<path d="M17.9401 9.69238L17.8295 10.0683V20.976L17.9401 21.0864L23.0034 18.0935L17.9401 9.69238Z" fill="white"/>
<path d="M17.9402 9.69238L12.8769 18.0935L17.9402 21.0864V15.7922V9.69238Z" fill="white"/>
<path d="M17.9401 22.7336L17.8778 22.8095V26.6951L17.9401 26.8771L23.0064 19.7422L17.9401 22.7336Z" fill="white"/>
<path d="M17.9402 26.8772V22.7336L12.8769 19.7422L17.9402 26.8772Z" fill="white"/>
<path d="M17.9401 21.0862L23.0033 18.0934L17.9401 15.792V21.0862Z" fill="white"/>
<path d="M12.8769 18.0934L17.9401 21.0862V15.792L12.8769 18.0934Z" fill="white"/>
</svg>
