<svg width="36" height="36" viewBox="0 0 36 36" fill="none" xmlns="http://www.w3.org/2000/svg">
<circle cx="18" cy="18" r="18" transform="matrix(1 0 0 -1 0 36)" fill="url(#paint0_linear_5067_3488)"/>
<g clip-path="url(#clip0_5067_3488)">
<path d="M11.7389 22.088C11.8491 21.976 12.0007 21.9106 12.1615 21.9106H26.7416C27.008 21.9106 27.1412 22.2374 26.9529 22.4288L24.0727 25.3558C23.9625 25.4679 23.8109 25.5332 23.6501 25.5332H9.07002C8.80359 25.5332 8.67037 25.2065 8.85871 25.0151L11.7389 22.088Z" fill="white"/>
<path d="M11.7389 11.1593C11.8537 11.0473 12.0053 10.9819 12.1615 10.9819L26.7416 10.9819C27.008 10.9819 27.1412 11.3087 26.9529 11.5001L24.0727 14.4271C23.9625 14.5392 23.8109 14.6045 23.6501 14.6045H9.07002C8.80359 14.6045 8.67037 14.2777 8.85871 14.0863L11.7389 11.1593Z" fill="white"/>
<path d="M24.0727 16.5885C23.9625 16.4765 23.8109 16.4111 23.6501 16.4111H9.07002C8.80359 16.4111 8.67037 16.7379 8.85871 16.9293L11.7389 19.8563C11.8491 19.9684 12.0007 20.0337 12.1615 20.0337H26.7416C27.008 20.0337 27.1412 19.7069 26.9529 19.5155L24.0727 16.5885Z" fill="white"/>
</g>
<defs>
<linearGradient id="paint0_linear_5067_3488" x1="18" y1="0" x2="18" y2="36" gradientUnits="userSpaceOnUse">
<stop stop-color="#C934F7"/>
<stop offset="1" stop-color="#1BE5AE"/>
</linearGradient>
<clipPath id="clip0_5067_3488">
<rect width="18.5758" height="14.5511" fill="white" transform="translate(8.61789 10.9819)"/>
</clipPath>
</defs>
</svg>
