<svg width="36" height="36" viewBox="0 0 36 36" fill="none" xmlns="http://www.w3.org/2000/svg">
<g clip-path="url(#clip0_5067_3501)">
<path d="M18 36C27.9411 36 36 27.9411 36 18C36 8.05887 27.9411 0 18 0C8.05887 0 0 8.05887 0 18C0 27.9411 8.05887 36 18 36Z" fill="#0088CC"/>
<path fill-rule="evenodd" clip-rule="evenodd" d="M12.9857 11.8931H23.0786C23.4643 11.8931 23.7857 11.9574 24.1714 12.1502C24.6214 12.3431 24.8786 12.6645 25.0071 12.9216C25.0071 12.9216 25.0071 12.9859 25.0714 12.9859C25.2643 13.3074 25.3928 13.6931 25.3928 14.1431C25.3928 14.5288 25.3286 14.9145 25.0714 15.3002L18.7071 26.2288C18.5786 26.4859 18.3214 26.6145 18 26.6145C17.7428 26.6145 17.4857 26.4859 17.2928 26.2288L11.0571 15.3002C10.9286 15.0431 10.6714 14.7216 10.6714 14.2074C10.6071 13.7574 10.7357 13.3716 10.9286 12.9859C11.1214 12.6002 11.4428 12.2788 11.8928 12.1502C12.2786 11.8931 12.7286 11.8931 12.9857 11.8931ZM17.2286 13.4359H12.9857C12.7286 13.4359 12.6 13.4359 12.5357 13.5002C12.4071 13.5645 12.3428 13.6288 12.2786 13.7574C12.2143 13.8216 12.2143 13.9502 12.2143 14.0788C12.2143 14.1431 12.2786 14.2074 12.4071 14.4645L17.2286 22.8216V13.4359ZM18.7714 13.4359V22.8859L23.6571 14.4645C23.7214 14.3359 23.7214 14.2074 23.7214 14.0788C23.7214 13.9502 23.7214 13.8216 23.6571 13.7574C23.5928 13.6931 23.5928 13.6288 23.5286 13.6288L23.4643 13.5645C23.3357 13.5002 23.2071 13.5002 23.0143 13.5002H18.7714V13.4359Z" fill="white"/>
</g>
<defs>
<clipPath id="clip0_5067_3501">
<rect width="36" height="36" fill="white"/>
</clipPath>
</defs>
</svg>
